Coordinates
version=1
nRows=28
nColumns=23
inDegrees=yes

Units are S.I. units (second, meters, Newtons, ...)
If the header above contains a line with 'inDegrees', this indicates whether rotational values are in degrees (yes) or radians (no).

endheader
time	pelvis_tilt	pelvis_list	pelvis_rotation	pelvis_tx	pelvis_ty	pelvis_tz	hip_flexion_r	hip_adduction_r	hip_rotation_r	knee_angle_r	knee_angle_r_beta	ankle_angle_r	subtalar_angle_r	mtp_angle_r	hip_flexion_l	hip_adduction_l	hip_rotation_l	knee_angle_l	knee_angle_l_beta	ankle_angle_l	subtalar_angle_l	mtp_angle_l
     22.50000000	    -11.74020722	      1.67851025	     -1.19791644	      2.32063941	      0.96049894	      1.05767419	     -9.32228988	      0.40746352	     -2.56193688	     13.27017771	      0.23160829	     -5.67157646	      4.80669734	      0.00000000	     38.83079489	      1.24043465	     -4.78592826	     60.47475751	      1.05548363	      6.97735687	    -12.49143504	      0.00000000
     22.50666667	    -12.26808258	      2.12893473	     -1.11329885	      2.32131660	      0.96331687	      1.05738695	     -9.55932703	     -0.22456613	     -3.67656717	     13.57594984	      0.23694502	     -8.80093855	      4.53532580	      0.00000000	     39.47374720	      1.76088011	     -5.20100459	     56.35969562	      0.98366225	      7.50998039	    -10.88382104	      0.00000000
     22.51333333	    -12.33043820	      2.43930201	     -0.98116752	      2.32200933	      0.96633687	      1.05706428	    -10.13686906	     -0.71400155	     -4.88212485	     14.17328353	      0.24737046	    -11.45759864	      4.17341735	      0.00000000	     39.46599543	      2.13781979	     -5.70726781	     52.09837551	      0.90928819	      8.30149189	     -8.57572316	      0.00000000
     22.52000000	    -12.78300481	      2.57161083	     -0.85128477	      2.32247406	      0.96856095	      1.05659850	    -10.06377964	     -1.04518091	     -6.10661111	     15.19068051	      0.26512739	    -13.97389767	      3.56596797	      0.00000000	     39.74503573	      2.40073579	     -6.11123464	     47.68360495	      0.83223591	      8.83993957	     -6.87248431	      0.00000000
     22.52666667	    -12.95165981	      2.76391135	     -0.78557099	      2.32291857	      0.97061272	      1.05621348	     -9.97629535	     -1.58572135	     -7.79947582	     16.86171860	      0.29429251	    -15.63420704	      3.32524306	      0.00000000	     39.55679563	      2.60214709	     -6.95231001	     43.15015711	      0.75311231	      9.61110481	     -4.41680598	      0.00000000
     22.53333333	    -13.21697919	      2.85253995	     -0.57387963	      2.32334952	      0.97206527	      1.05547109	     -9.75819210	     -1.98864885	     -9.33251277	     18.61557642	      0.32490310	    -17.22114462	      2.31364775	      0.00000000	     39.32831043	      2.93272510	     -7.50487088	     38.49308866	      0.67183114	     10.25403849	     -2.48394724	      0.00000000
     22.54000000	    -13.34526291	      2.97176073	     -0.39618744	      2.32377374	      0.97308721	      1.05458983	     -9.52450492	     -2.52357344	    -10.97295657	     20.73265814	      0.36185315	    -18.25353522	      1.35956775	      0.00000000	     38.81579177	      3.32245542	     -8.19045124	     33.79573842	      0.58984691	     10.94953771	     -0.47208850	      0.00000000
     22.54666667	    -13.35169454	      3.23090979	     -0.26967014	      2.32428871	      0.97361173	      1.05356786	     -9.24348766	     -3.40975737	    -12.97061194	     23.30817982	      0.40680448	    -18.54929860	      1.15640250	      0.00000000	     38.01121061	      3.90073447	     -8.93852533	     29.03756062	      0.50680104	     11.60754986	      1.37105752	      0.00000000
     22.55333333	    -13.27356743	      3.45183323	     -0.06609908	      2.32487264	      0.97364360	      1.05231674	     -9.08154126	     -4.21186007	    -14.59905526	     25.84552820	      0.45108956	    -18.68539836	      0.12590681	      0.00000000	     36.99625972	      4.62311010	     -9.29335440	     24.31627882	      0.42439913	     12.15558305	      2.76607981	      0.00000000
     22.56000000	    -13.14165584	      3.58707560	      0.19656434	      2.32555866	      0.97308505	      1.05095415	     -8.98097817	     -4.88939329	    -15.96523028	     28.39908306	      0.49565750	    -18.60230451	     -1.34632938	      0.00000000	     35.89838864	      5.34229555	     -9.37925356	     19.90851374	      0.34746911	     12.74312091	      4.07157012	      0.00000000
     22.56666667	    -12.74982746	      3.86513175	      0.47599004	      2.32635918	      0.97233739	      1.04948827	     -9.11037939	     -5.82989564	    -17.50417386	     31.11677328	      0.54309015	    -18.00259965	     -2.12601259	      0.00000000	     34.20337827	      6.43420739	     -8.18684724	     15.17427782	      0.26484111	     12.55722498	      3.37792739	      0.00000000
     22.57333333	    -12.26036232	      3.99061786	      0.62939970	      2.32722189	      0.97117145	      1.04836919	     -9.30017026	     -6.50326799	    -18.41737810	     33.75535674	      0.58914212	    -17.34166448	     -3.58794778	      0.00000000	     32.60669991	      7.07581346	     -7.67434446	     11.37026094	      0.19844849	     12.67699463	      3.81838138	      0.00000000
     22.58000000	    -11.81996864	      3.93831030	      0.89074861	      2.32787991	      0.96946956	      1.04724504	     -9.35359594	     -6.94407751	    -19.17542251	     36.46641293	      0.63645897	    -16.78177008	     -5.19802808	      0.00000000	     31.31612510	      7.48057806	     -7.04876549	      8.57202529	      0.14961006	     12.89485558	      4.32678644	      0.00000000
     22.58666667	    -11.29208449	      3.96140842	      1.14496115	      2.32865205	      0.96757520	      1.04622016	     -9.45957150	     -7.46302872	    -19.85771061	     39.18323584	      0.68387648	    -16.07695922	     -6.69028243	      0.00000000	     29.95258429	      7.89638379	     -6.28592605	      6.29073462	      0.10979403	     12.72330784	      4.26379947	      0.00000000
     22.59333333	    -10.68872277	      3.92550826	      1.56387577	      2.32922426	      0.96555305	      1.04515180	     -9.57362445	     -7.85036254	    -20.50103467	     41.92666476	      0.73175834	    -15.37454495	     -8.11584774	      0.00000000	     28.58756987	      8.28286748	     -4.84970228	      4.65026505	      0.08116244	     12.10808580	      3.24649300	      0.00000000
     22.60000000	    -10.21104827	      3.92181168	      2.09810857	      2.32957451	      0.96316645	      1.04389124	     -9.44683130	     -8.26484794	    -21.10016028	     44.77574858	      0.78148424	    -14.78991605	     -9.73055796	      0.00000000	     27.86747546	      8.58740908	     -4.45411517	      4.53685805	      0.07918311	     11.79689080	      3.47444014	      0.00000000
     22.60666667	     -9.88167437	      4.20351254	      2.52729200	      2.32967674	      0.96034917	      1.04271378	     -8.98103157	     -9.09477069	    -21.60679766	     47.87246296	      0.83553210	    -14.47676797	    -11.15934820	      0.00000000	     27.37724990	      9.09135423	     -4.18830782	      4.96332252	      0.08662632	     10.91416438	      3.17492565	      0.00000000
     22.61333333	    -10.00817633	      4.46240745	      3.05434000	      2.32934678	      0.95670199	      1.04137685	     -7.83341000	     -9.96820199	    -22.02290623	     51.23153047	      0.89415889	    -13.98076335	    -12.26416832	      0.00000000	     27.67826134	      9.58252070	     -3.89675483	      6.39929484	      0.11168876	      9.72630130	      2.36022889	      0.00000000
     22.62000000	    -10.10804311	      4.74398773	      3.70001664	      2.32882559	      0.95279721	      1.03990391	     -6.65768838	    -10.85556690	    -22.41984247	     54.57821864	      0.95256962	    -13.68810710	    -13.32694384	      0.00000000	     28.26333485	     10.08635179	     -3.92203147	      8.87228449	      0.15485058	      8.59431539	      1.66468981	      0.00000000
     22.62666667	    -10.38264552	      4.95503571	      4.38774460	      2.32804135	      0.94821483	      1.03845714	     -5.15256637	    -11.68779986	    -22.66566231	     58.02334142	      1.01269835	    -13.44436044	    -14.23564059	      0.00000000	     29.37117248	     10.45064970	     -4.36601510	     12.36868691	      0.21587431	      7.71017902	      1.19053451	      0.00000000
     22.63333333	    -10.58526075	      4.99196950	      5.05583929	      2.32713677	      0.94330169	      1.03715176	     -3.59832567	    -12.28754980	    -22.70085499	     61.41677631	      1.07192496	    -13.35549951	    -15.05868110	      0.00000000	     30.66863761	     10.47720817	     -5.38069746	     16.71771928	      0.29177924	      7.38024088	      1.54564645	      0.00000000
     22.64000000	    -10.83143668	      4.96767324	      5.65651076	      2.32604947	      0.93806876	      1.03608446	     -1.83285981	    -12.81199705	    -22.51534451	     64.81901054	      1.13130515	    -13.10957422	    -15.53913250	      0.00000000	     31.80530990	     10.50430155	     -5.58573608	     20.84308093	      0.36378039	      7.06734086	      0.72907697	      0.00000000
     22.64666667	    -10.95989416	      4.83023373	      6.24653607	      2.32486220	      0.93281383	      1.03514089	     -0.08537700	    -13.15814107	    -22.20869493	     68.10206043	      1.18860518	    -12.87874340	    -15.73647671	      0.00000000	     32.74887944	     10.40287011	     -5.68176007	     25.02010098	      0.43668314	      7.27494605	      0.07798086	      0.00000000
     22.65333333	    -11.05270157	      4.69481559	      6.67979636	      2.32351725	      0.92760490	      1.03453537	      1.81522895	    -13.45257043	    -21.60892628	     71.32660358	      1.24488408	    -12.60162797	    -15.78990149	      0.00000000	     33.48254413	     10.20454840	     -5.83953403	     28.97815134	      0.50576415	      8.04965194	     -0.28850181	      0.00000000
     22.66000000	    -11.02652915	      4.56545343	      7.05047389	      2.32200268	      0.92275736	      1.03408669	      3.71865853	    -13.68501974	    -20.86226628	     74.40576863	      1.29862565	    -12.20630710	    -15.54821196	      0.00000000	     33.84935602	     10.01142301	     -5.82782702	     32.55781602	      0.56824109	      9.32780789	     -0.53136044	      0.00000000
     22.66666667	    -10.90352490	      4.42384829	      7.42305859	      2.32037737	      0.91836647	      1.03369022	      5.60454361	    -13.85863034	    -20.08914735	     77.29902299	      1.34912246	    -11.63864852	    -14.93769938	      0.00000000	     33.84745559	      9.84299369	     -5.60206950	     35.70616967	      0.62319022	     11.00510783	     -0.61104812	      0.00000000
     22.67333333	    -10.74153899	      4.34721070	      7.68714319	      2.31858041	      0.91449826	      1.03354631	      7.58909990	    -14.03002370	    -19.13618182	     80.01507316	      1.39652648	    -10.96645905	    -14.19116337	      0.00000000	     33.53768661	      9.64612871	     -5.49631348	     38.39787010	      0.67016926	     13.02594317	     -0.30420761	      0.00000000
     22.68000000	    -10.13910666	      4.31690240	      7.99511000	      2.31693299	      0.91189015	      1.03337215	      9.06735548	    -14.13425845	    -18.26314393	     82.33829120	      1.43707428	    -10.34359627	    -13.52600476	      0.00000000	     32.37731463	      9.56337924	     -5.01435833	     40.44026637	      0.70581580	     15.14872638	     -0.32589327	      0.00000000
